<svg width="30" height="30" viewBox="0 0 30 30" fill="none" xmlns="http://www.w3.org/2000/svg">
<path fill-rule="evenodd" clip-rule="evenodd" d="M15 0C6.71573 0 0 6.71593 0 15.0004C0 23.285 6.71573 30.0009 15 30.0009C23.2843 30.0009 30 23.285 30 15.0004C30 11.0221 28.4196 7.20666 25.6066 4.39353C22.7936 1.5804 18.9782 0 15 0ZM14.9429 24.663C13.2987 25.4578 10.756 24.7742 11.1997 23.1183L13.5979 14.168C14.4327 11.0525 12.1524 12.0537 11.1118 12.5106L11.0965 12.5173C11.7284 11.5671 12.6034 10.8035 13.6304 10.306C15.2746 9.51124 17.8173 10.1949 17.3736 11.8508L14.9754 20.8013C14.1406 23.9168 16.4209 22.9156 17.4615 22.4587L17.4768 22.452C16.8448 23.4021 15.9699 24.1656 14.9429 24.663ZM15.5518 7.41356C15.8208 8.06286 16.4544 8.48622 17.1571 8.48622C17.618 8.48622 18.0599 8.30315 18.3858 7.97729C18.7116 7.65142 18.8947 7.20945 18.8947 6.74861C18.8947 6.04581 18.4714 5.41221 17.8221 5.14326C17.1728 4.87431 16.4254 5.02297 15.9285 5.51992C15.4316 6.01688 15.2829 6.76426 15.5518 7.41356Z" fill="#B6B9BF"/>
</svg>
