<svg width="30" height="30" viewBox="0 0 30 30" fill="none" xmlns="http://www.w3.org/2000/svg">
<path d="M27.3081 0.670048L10.8416 24.5487L2.66543 13.6922C2.51373 13.4819 2.3346 13.3177 2.13855 13.2091C1.94251 13.1006 1.73348 13.0499 1.52375 13.0601C1.31401 13.0702 1.10779 13.141 0.917174 13.2683C0.726558 13.3956 0.555388 13.5767 0.413705 13.8012C0.272022 14.0257 0.162678 14.289 0.092089 14.5755C0.0214998 14.8621 -0.00891404 15.1663 0.00263144 15.4701C0.0141769 15.774 0.0674492 16.0714 0.159324 16.345C0.251198 16.6186 0.379824 16.8628 0.537658 17.0634L9.82498 29.3998C10.1243 29.7976 10.518 30.0125 10.924 29.9997C11.3299 29.9869 11.7168 29.7475 12.004 29.3312L29.5384 3.90415C29.8341 3.47528 30.0003 2.89361 30.0003 2.2871C30.0003 1.68059 29.8341 1.09892 29.5384 0.670048C29.2426 0.24118 28.8415 0.000244141 28.4233 0.000244141C28.005 0.000244141 27.6039 0.24118 27.3081 0.670048Z" fill="white"/>
</svg>
